<?xml version="1.0" encoding="UTF-8"?><svg xmlns="http://www.w3.org/2000/svg" width="103.36" height="241.01" viewBox="0 0 103.36 241.01"><defs><style>.e{fill:none;stroke:#2f5061;stroke-miterlimit:10;stroke-width:3px;}.f{fill:#2f5061;}</style></defs><g id="a"/><g id="b"/><g id="c"/><g id="d"><g><path class="e" d="M13.63,85.59c6.07-21.52,25.93-31.65,29.96-33.7,7.41-3.78,24.64-12.57,40.51-4.43,12.8,6.57,16.73,20.06,17.02,21.11,1.46,5.3,1.72,11.77-8.51,40.17-7.87,21.84-8.22,18.55-9.87,25.53-4.87,20.54,3.29,27.36,3.4,58.55,.07,18.23-.08,30.8-9.19,39.15-8.83,8.09-21.03,7.61-23.15,7.49-.82-.05-16.64-1.19-24.85-12.6-13.06-18.15,10.3-38.41,.47-72.34-3.42-11.81-6.96-11.81-11.86-28.87-4.41-15.34-7.68-26.76-3.93-40.06Z"/><path class="e" d="M1.71,57.67c-.9-4.07,1.17-9.06,4.43-9.87,3.95-.99,9.23,4.27,9.19,9.53-.02,2.93-1.7,6.71-4.77,7.49-3.76,.96-7.93-3.02-8.85-7.15Z"/><path class="e" d="M20.78,33.5c3.96-.51,7.89,4.08,8.51,8.51,.48,3.43-.8,8.31-4.43,9.53-3.94,1.33-8.62-2.33-9.87-6.47-1.47-4.86,1.57-11.03,5.79-11.57Z"/><path class="e" d="M37.12,19.2c5.34-.81,10.47,4.9,10.89,10.55,.37,4.91-2.72,10.92-7.83,11.57-5.27,.67-9.87-4.73-10.55-9.87-.7-5.22,2.45-11.49,7.49-12.26Z"/><path class="e" d="M60.27,9.67c3.99-.22,8.43,6.03,8.85,11.91,.28,3.94-1.04,10.47-5.79,11.91-3.88,1.18-8.29-1.58-10.21-4.77-4.19-6.97,1.84-18.77,7.15-19.06Z"/><path class="e" d="M87.84,1.5c7.39-.14,14.64,11.22,13.62,21.11-.56,5.4-3.91,13.48-10.55,14.64-7.12,1.24-13.88-6.19-15.66-12.94-2.69-10.18,4.94-22.67,12.6-22.81Z"/><path class="e" d="M44.61,116.91c-9.16-4.18-15.42-12.9-16.34-22.81-.98-10.63,4.33-20.98,13.62-26.55,5.22,8.08,10.42,13.51,14.3,17.02,3.86,3.49,8.24,6.75,7.49,9.87-.49,2.05-2.71,2.03-5.79,5.45-3.46,3.85-4.49,8.14-4.43,8.17,.07,.03,1.39-4.74,4.43-8.17,3.09-3.49,9.12-6.92,22.13-6.13,4.11,7.83,3.03,17.2-2.56,23.28-6.88,7.49-17.01,6.12-17.87,5.99"/><path class="f" d="M44.07,84.25c-.15,4.18,.13,8.35,.84,12.45,.98,4.15,1.95,7.94,1.88,12.33l-.28,.11c-3.02-3.37-4.02-7.79-3.98-12.18-.22-4.29,.21-8.61,1.25-12.75l.3,.04h0Z"/><path class="f" d="M70.54,107.17c-2.17,1.54-4.13,3.32-5.86,5.31-1.56,2.24-3.17,4.22-5.65,5.53l-.26-.15c-.09-3.13,1.8-5.53,4.27-7.13,2.19-1.73,4.72-3.03,7.37-3.83l.13,.27h0Z"/></g></g></svg>