<?xml version="1.0" encoding="UTF-8"?><svg xmlns="http://www.w3.org/2000/svg" width="157.53" height="246.54" viewBox="0 0 157.53 246.54"><defs><style>.e{fill:none;stroke:#2f5061;stroke-miterlimit:10;stroke-width:3px;}</style></defs><g id="a"/><g id="b"/><g id="c"/><g id="d"><g><path class="e" d="M1.87,41.79c1.8-6.81,3.61-13.62,5.41-20.43l9.61,.82c1.45-5.61,2.9-11.22,4.35-16.82,15.3-1.94,32.17-3.34,50.38-3.74,24.52-.55,46.81,.82,66.38,3.06,.91,6.35,1.82,12.71,2.72,19.06,3.4-.91,6.81-1.82,10.21-2.72,1.59,6.7,3.18,13.39,4.77,20.09-21.37,3.91-47.35,7.02-76.94,7.15-29.55,.13-55.52-2.75-76.9-6.47Z"/><path class="e" d="M13.1,43.59c7.59,63.29,15.18,126.57,22.77,189.86,7.94,4.17,23.78,11.15,44.94,11.57,22.15,.44,38.89-6.53,46.98-10.55,5.74-63.85,11.48-127.7,17.22-191.54"/><path class="e" d="M21.23,5.36c16.74,3.28,37.88,5.91,62.3,5.45,21.02-.4,39.42-3,54.47-6.13"/></g></g></svg>