<?xml version="1.0" encoding="UTF-8"?><svg xmlns="http://www.w3.org/2000/svg" width="115.26" height="236.61" viewBox="0 0 115.26 236.61"><defs><style>.e{fill:none;stroke:#2f5061;stroke-miterlimit:10;stroke-width:3px;}</style></defs><g id="a"/><g id="b"/><g id="c"/><g id="d"><g><path class="e" d="M90.71,10.35c-13.52,19.82-41,66.06-43.23,130.38-1.44,41.55,8.2,74.89,16,95.34"/><path class="e" d="M102.63,1.97c.98,1.38-5.54,4.82-8.51,13.83-4.4,13.35,3.49,25.31,9.19,38.81,1.04,2.46,12.21,29.55,10.21,56.17-.39,5.13-3.68,41.53-32.68,60.26-5.57,3.59-18.82,12.15-34.72,9.53-25.19-4.15-39.94-33.57-43.57-54.47-5.9-33.89,14.68-61.07,24.71-74.33C56.08,13.68,100.21-1.45,102.63,1.97Z"/><path class="e" d="M87.31,52.56c-3.4,1.02-7.52,2.6-11.91,5.11-6.73,3.85-11.46,8.38-14.51,11.82"/><path class="e" d="M96.84,76.39c-3.53,5.12-8.6,11.34-15.66,17.36-11.48,9.79-23.11,14.67-30.79,17.17"/><path class="e" d="M95.14,111.8c-3.8,5.76-11.05,15.12-23.15,22.81-9.5,6.04-18.49,8.83-24.62,10.2"/><path class="e" d="M58.03,35.2c1.46,10,2.92,20.01,4.39,30.01"/><path class="e" d="M27.39,61.75c1.85,9.22,4.71,19.99,9.19,31.66,3.93,10.24,8.32,19.09,12.53,26.5"/><path class="e" d="M13.44,99.2c-.42,5.96-1.05,25.56,12.26,43.57,7.56,10.24,16.59,15.87,22.13,18.72"/></g></g></svg>